<svg width="25" height="25" viewBox="0 0 25 25" fill="none" xmlns="http://www.w3.org/2000/svg">
<path d="M9.50001 7.1V4.20711C9.50001 3.75435 9.67986 3.32014 10 3C10.3202 2.67986 10.7544 2.5 11.2071 2.5H13.7929C14.2457 2.5 14.6799 2.67986 15 3C15.3202 3.32014 15.5 3.75435 15.5 4.20711V7.1M9.50001 7.1H15.5M9.50001 7.1H4.83334C3.54468 7.1 2.50001 8.07683 2.50001 9.28182L2.5 19.6667C2.5 20.8717 3.54467 21.8485 4.83333 21.8485H12.1573M15.5 7.1H20.1667C21.4553 7.1 22.5 8.07683 22.5 9.28182V11.3202M18 15.75V17.25M18 18.75V17.25M16.5 17.25H18M19.5 17.25H18M22.5 17.25C22.5 19.7353 20.4853 21.75 18 21.75C15.5147 21.75 13.5 19.7353 13.5 17.25C13.5 14.7647 15.5147 12.75 18 12.75C20.4853 12.75 22.5 14.7647 22.5 17.25Z" stroke="#222222" stroke-width="1.6" stroke-linecap="round"/>
</svg>
