<svg width="25" height="25" viewBox="0 0 25 25" fill="none" xmlns="http://www.w3.org/2000/svg">
<path d="M9.50001 7.1V4.20711C9.50001 3.75435 9.67986 3.32014 10 3V3C10.3202 2.67986 10.7544 2.5 11.2071 2.5H13.7929C14.2457 2.5 14.6799 2.67986 15 3V3C15.3202 3.32014 15.5 3.75435 15.5 4.20711V7.1M9.50001 7.1H15.5M9.50001 7.1H7.16667H4.83334C3.54468 7.1 2.50001 8.07683 2.50001 9.28182L2.5 19.6667C2.5 20.8717 3.54467 21.8485 4.83333 21.8485H7.16667H16.5H17.8333H20.1667C21.4553 21.8485 22.5 20.8717 22.5 19.6667L22.5 9.28182C22.5 8.07683 21.4553 7.1 20.1667 7.1H17.8333H15.5" stroke="#222222" stroke-width="1.6"/>
</svg>
