<svg width="25" height="25" viewBox="0 0 25 25" fill="none" xmlns="http://www.w3.org/2000/svg">
<path d="M9.50001 7.1V4.20711C9.50001 3.75435 9.67986 3.32014 10 3V3C10.3202 2.67986 10.7544 2.5 11.2071 2.5H13.7929C14.2457 2.5 14.6799 2.67986 15 3V3C15.3202 3.32014 15.5 3.75435 15.5 4.20711V7.1M9.50001 7.1H15.5M9.50001 7.1H7.16667M15.5 7.1H17.8333M7.16667 7.1H4.83334C3.54468 7.1 2.50001 8.07683 2.50001 9.28182L2.5 19.6667C2.5 20.8717 3.54467 21.8485 4.83333 21.8485H7.16667M7.16667 7.1V21.8485M7.16667 21.8485H16.5H17.8333M17.8333 7.1H20.1667C21.4553 7.1 22.5 8.07683 22.5 9.28182L22.5 19.6667C22.5 20.8717 21.4553 21.8485 20.1667 21.8485H17.8333M17.8333 7.1V21.8485" stroke="#222222" stroke-width="1.6"/>
</svg>
