<svg width="25" height="25" viewBox="0 0 25 25" fill="none" xmlns="http://www.w3.org/2000/svg">
<path d="M22.5 17.8999V14.3999C22.5 13.2953 21.6046 12.3999 20.5 12.3999M22.5 17.8999V20.4999M22.5 17.8999H2.5M2.5 20.4999V17.8999M2.5 17.8999V14.3999C2.5 13.2953 3.39543 12.3999 4.5 12.3999M4.5 12.3999V7.8999C4.5 6.24305 5.84315 4.8999 7.5 4.8999H17.4564C19.102 4.8999 20.4404 6.22546 20.4563 7.87093L20.5 12.3999M4.5 12.3999H8.5M20.5 12.3999H16.5M8.5 12.3999V11.3999C8.5 9.74305 9.84315 8.3999 11.5 8.3999H13.5C15.1569 8.3999 16.5 9.74305 16.5 11.3999V12.3999M8.5 12.3999H16.5" stroke="#222222" stroke-width="1.6" stroke-linecap="round"/>
</svg>
