<svg width="25" height="25" viewBox="0 0 25 25" fill="none" xmlns="http://www.w3.org/2000/svg">
<path d="M5.01854 16.2015L5.76799 16.4813H5.76799L5.01854 16.2015ZM4.56752 17.4093L3.81807 17.1294H3.81807L4.56752 17.4093ZM19.9815 16.2015L20.7309 15.9216L19.9815 16.2015ZM20.4325 17.4093L19.683 17.6891L19.683 17.6891L20.4325 17.4093ZM5.21825 10.3185H6.01825C6.01825 6.71464 8.92402 3.8 12.5 3.8V3V2.2C8.03278 2.2 4.41825 5.83859 4.41825 10.3185H5.21825ZM12.5 3V3.8C16.076 3.8 18.9818 6.71464 18.9818 10.3185H19.7818H20.5818C20.5818 5.83859 16.9672 2.2 12.5 2.2V3ZM5.21825 10.3185H4.41825V15.096H5.21825H6.01825V10.3185H5.21825ZM5.01854 16.2015L4.26909 15.9216L3.81807 17.1294L4.56752 17.4093L5.31697 17.6891L5.76799 16.4813L5.01854 16.2015ZM19.7818 10.3185H18.9818V15.096H19.7818H20.5818V10.3185H19.7818ZM19.9815 16.2015L19.232 16.4813L19.683 17.6891L20.4325 17.4093L21.1819 17.1294L20.7309 15.9216L19.9815 16.2015ZM19.7818 15.096H18.9818C18.9818 15.569 19.0665 16.0382 19.232 16.4813L19.9815 16.2015L20.7309 15.9216C20.6323 15.6574 20.5818 15.3778 20.5818 15.096H19.7818ZM5.21825 15.096H4.41825C4.41825 15.3778 4.36774 15.6574 4.26909 15.9216L5.01854 16.2015L5.76799 16.4813C5.93348 16.0382 6.01825 15.569 6.01825 15.096H5.21825ZM19.441 18.8333V19.6333C20.7341 19.6333 21.6357 18.3446 21.1819 17.1294L20.4325 17.4093L19.683 17.6891C19.7444 17.8534 19.6235 18.0333 19.441 18.0333V18.8333ZM5.55898 18.8333V18.0333C5.37654 18.0333 5.25562 17.8534 5.31697 17.6891L4.56752 17.4093L3.81807 17.1294C3.3643 18.3446 4.2659 19.6333 5.55898 19.6333V18.8333ZM15.6715 18.8333H14.8715C14.8715 20.1395 13.8121 21.2 12.5 21.2V22V22.8C14.6939 22.8 16.4715 21.025 16.4715 18.8333H15.6715ZM12.5 22V21.2C11.1878 21.2 10.1281 20.1394 10.1281 18.8333H9.32813H8.52813C8.52813 21.0251 10.3062 22.8 12.5 22.8V22ZM15.6715 18.8333V19.6333H19.441V18.8333V18.0333H15.6715V18.8333ZM5.55898 18.8333V19.6333H9.32813V18.8333V18.0333H5.55898V18.8333ZM9.32813 18.8333V19.6333H15.6715V18.8333V18.0333H9.32813V18.8333Z" fill="#222222"/>
</svg>
