<svg width="25" height="25" viewBox="0 0 25 25" fill="none" xmlns="http://www.w3.org/2000/svg">
<path d="M9.6455 19.689V20.3548C9.6455 21.3467 8.83649 22.1507 7.83851 22.1507C6.84054 22.1507 6.03153 21.3467 6.03153 20.3548V19.4957M9.6455 19.689H6.91778C6.59997 19.689 6.29928 19.6195 6.03153 19.4957M9.6455 19.689H15.3547M6.03153 19.4957C5.35437 19.1824 4.88785 18.5213 4.88785 17.7559V14.3699M18.9687 19.4957V20.3548C18.9687 21.3467 18.1596 22.1507 17.1617 22.1507C16.1637 22.1507 15.3547 21.3467 15.3547 20.3548V19.689M18.9687 19.4957C19.6458 19.1824 20.1123 18.5213 20.1123 17.7559V14.3699M18.9687 19.4957C18.7009 19.6195 18.4002 19.689 18.0824 19.689H15.3547M7.74244 17.0398H8.69397M16.3062 17.0398H17.2577M20.1123 8.34078H21.6756C22.1258 8.34078 22.4912 8.76445 22.4912 9.28647V12.1235M20.1123 8.34078V6.71564C20.1123 6.4765 20.0832 6.2505 20.0278 6.03711M20.1123 8.34078V14.3699M4.88785 14.3699H20.1123M4.88785 14.3699V8.34082M4.97241 6.03711H20.0278M4.97241 6.03711C4.91702 6.2505 4.88785 6.4765 4.88785 6.71564V8.34082M4.97241 6.03711C5.58867 3.66308 9.45055 2.84937 12.5001 2.84937C15.5496 2.84937 19.4115 3.66308 20.0278 6.03711M4.88785 8.34082H3.46056C2.93532 8.34082 2.50903 8.76449 2.50903 9.28651V12.1236" stroke="#222222" stroke-width="1.6" stroke-linecap="round" stroke-linejoin="round"/>
</svg>
