<svg width="25" height="25" viewBox="0 0 25 25" fill="none" xmlns="http://www.w3.org/2000/svg">
<path d="M3.30005 8.45825C4.45232 7.46784 6.24428 6.5215 8.11293 5.94528M8.11293 5.94528L6.46585 3.91943M8.11293 5.94528L12.1223 10.8766M11.1808 5.37703C14.7132 4.9567 18.3078 5.70224 21.6953 8.45818M6.7491 13.031C7.84916 12.0224 10.1471 11.091 12.1223 10.8766M12.1223 10.8766L18.6534 18.9095M15.2615 11.3463C15.2615 11.3463 15.5137 11.4313 15.6093 11.467C16.514 11.8049 17.4091 12.3107 18.25 13.0275M12.4981 16.05C13.6026 16.05 14.4981 16.9455 14.4981 18.05C14.4981 19.1546 13.6026 20.05 12.4981 20.05C11.3935 20.05 10.4981 19.1546 10.4981 18.05C10.4981 16.9455 11.3935 16.05 12.4981 16.05Z" stroke="#222222" stroke-width="1.6" stroke-linecap="round"/>
</svg>
