<svg width="25" height="25" viewBox="0 0 25 25" fill="none" xmlns="http://www.w3.org/2000/svg">
<path d="M20.5 12.5V18.5C20.5 20.1569 19.1569 21.5 17.5 21.5H6.5C4.84315 21.5 3.5 20.1569 3.5 18.5V7.5C3.5 5.84315 4.84315 4.5 6.5 4.5H12.5M11.6593 10.4169L19.2735 2.80276C19.6772 2.3991 20.3316 2.39908 20.7353 2.80271L22.1973 4.26469C22.6009 4.66838 22.6009 5.32285 22.1972 5.72651L14.5831 13.3407C14.4774 13.4463 14.3501 13.5279 14.2099 13.5796L11.8937 14.4339C11.0659 14.7392 10.2608 13.9341 10.5661 13.1063L11.4204 10.7901C11.4721 10.6499 11.5537 10.5226 11.6593 10.4169Z" stroke="#222222" stroke-width="1.6" stroke-linecap="round" stroke-linejoin="round"/>
</svg>
