<svg width="25" height="25" viewBox="0 0 25 25" fill="none" xmlns="http://www.w3.org/2000/svg">
<path d="M3.5 7.5V6.5C3.5 4.84315 4.84315 3.5 6.5 3.5H7.5M3.5 17.5V18.5C3.5 20.1569 4.84315 21.5 6.5 21.5H7.5M21.5 7.5V6.5C21.5 4.84315 20.1569 3.5 18.5 3.5H17.5M21.5 17.5V18.5C21.5 20.1569 20.1569 21.5 18.5 21.5H17.5M6.87195 14H9.87195C10.4242 14 10.8719 14.4477 10.8719 15V18M16.1297 7C17.2343 7 18.1297 7.89543 18.1297 9C18.1297 10.1046 17.2343 11 16.1297 11C15.0251 11 14.1297 10.1046 14.1297 9C14.1297 7.89543 15.0251 7 16.1297 7ZM16.1297 14C17.2343 14 18.1297 14.8954 18.1297 16C18.1297 17.1046 17.2343 18 16.1297 18C15.0251 18 14.1297 17.1046 14.1297 16C14.1297 14.8954 15.0251 14 16.1297 14ZM8.87195 7C9.97652 7 10.8719 7.89543 10.8719 9C10.8719 10.1046 9.97652 11 8.87195 11C7.76738 11 6.87195 10.1046 6.87195 9C6.87195 7.89543 7.76738 7 8.87195 7Z" stroke="#222222" stroke-width="1.6" stroke-linecap="round" stroke-linejoin="round"/>
</svg>
