<svg width="25" height="25" viewBox="0 0 25 25" fill="none" xmlns="http://www.w3.org/2000/svg">
<path d="M5.5 11.5H7.5M7.5 11.5V10.5C7.5 8.84315 8.84315 7.5 10.5 7.5H14.5C16.1569 7.5 17.5 8.84315 17.5 10.5V11.5M7.5 11.5H17.5M17.5 11.5H19.5M17.5 14.5C17.5 16.1569 16.1569 17.5 14.5 17.5H10.5C8.84315 17.5 7.5 16.1569 7.5 14.5M3.5 7.5V6.5C3.5 4.84315 4.84315 3.5 6.5 3.5H7.5M3.5 17.5V18.5C3.5 20.1569 4.84315 21.5 6.5 21.5H7.5M21.5 7.5V6.5C21.5 4.84315 20.1569 3.5 18.5 3.5H17.5M21.5 17.5V18.5C21.5 20.1569 20.1569 21.5 18.5 21.5H17.5" stroke="#222222" stroke-width="1.6" stroke-linecap="round" stroke-linejoin="round"/>
</svg>
