<svg width="25" height="25" viewBox="0 0 25 25" fill="none" xmlns="http://www.w3.org/2000/svg">
<path d="M16.9478 4.44239C17.5805 3.80968 17.3865 2.74355 16.5044 2.59294C14.5206 2.25419 12.4208 2.84114 10.9033 4.35869C9.26899 5.99298 8.71398 8.30247 9.23213 10.4153C9.25761 10.5192 9.22929 10.6295 9.15418 10.7057L3.97476 15.9588C2.72323 17.2103 2.73757 19.2538 4.00677 20.523C5.27597 21.7922 7.31943 21.8065 8.57095 20.555L13.7484 15.3039C13.8246 15.2267 13.9364 15.1971 14.0418 15.2229C16.1539 15.7399 18.4621 15.1847 20.0957 13.5511C21.6132 12.0335 22.2002 9.93378 21.8614 7.94991C21.7108 7.0679 20.6447 6.87381 20.012 7.50652L17.7869 9.73156C16.9526 10.5659 15.5903 10.5564 14.7441 9.71022C13.898 8.86408 13.8884 7.50178 14.7228 6.66743L16.9478 4.44239Z" stroke="#222222" stroke-width="1.6"/>
</svg>
