<svg width="25" height="25" viewBox="0 0 25 25" fill="none" xmlns="http://www.w3.org/2000/svg">
<path d="M11.112 3.36282C11.6798 2.21239 13.3202 2.21239 13.888 3.36282L15.7791 7.19453C16.0045 7.65136 16.4404 7.96801 16.9445 8.04126L21.173 8.65571C22.4426 8.84019 22.9496 10.4004 22.0309 11.2959L18.9711 14.2784C18.6063 14.634 18.4398 15.1464 18.5259 15.6485L19.2482 19.8599C19.4651 21.1244 18.1379 22.0886 17.0024 21.4916L13.2203 19.5033C12.7694 19.2662 12.2306 19.2662 11.7797 19.5033L7.99761 21.4916C6.86206 22.0886 5.53489 21.1244 5.75176 19.8599L6.47408 15.6485C6.56019 15.1464 6.39373 14.634 6.02892 14.2784L2.96912 11.2959C2.05045 10.4004 2.55738 8.84019 3.82696 8.65571L8.0555 8.04126C8.55965 7.96801 8.99547 7.65136 9.22093 7.19453L11.112 3.36282Z" stroke="#222222" stroke-width="1.6" stroke-linecap="round" stroke-linejoin="round"/>
</svg>
