<svg width="25" height="25" viewBox="0 0 25 25" fill="none" xmlns="http://www.w3.org/2000/svg">
<path d="M15.3987 6.37523C15.3987 4.8425 14.1562 3.5 12.6234 3.5H12.3771C10.8443 3.5 9.60181 4.86876 9.60181 6.4015M15.3987 6.37523L9.60181 6.4015M15.3987 6.37523L19.5001 6.35665M9.60181 6.4015L5.50006 6.42008M4.40405 6.42505L5.50006 6.42008M20.5964 6.35168L19.5001 6.35665M19.5001 6.35665V18.5001C19.5001 20.1569 18.1569 21.5001 16.5001 21.5001H8.50006C6.84321 21.5001 5.50006 20.1569 5.50006 18.5001V6.42008M10.5991 11.7222V16.2763M14.4014 11.6734V16.2274" stroke="#222222" stroke-width="1.6" stroke-linecap="round" stroke-linejoin="round"/>
</svg>
