<svg width="25" height="25" viewBox="0 0 25 25" fill="none" xmlns="http://www.w3.org/2000/svg">
<path d="M9 19.3953C6.33576 17.9347 3.5 15.4993 3.5 11.3C3.5 5.49927 8.08172 2.30005 12.5 2.30005C16.9183 2.30005 21.5 5.49927 21.5 11.3C21.5 15.4993 18.6642 17.9347 16 19.3953M9 19.3953L9.36902 21.2163C9.44617 21.597 9.63381 21.9465 9.90849 22.2212V22.2212C10.2791 22.5918 10.7818 22.8 11.3059 22.8H13.7024C14.2255 22.8 14.7271 22.5923 15.097 22.2224V22.2224C15.3724 21.947 15.5601 21.5963 15.6364 21.2144L16 19.3953M9 19.3953H12.5M16 19.3953H12.5M12.5 19.3953V13.9993M10 13.9993H15" stroke="#222222" stroke-width="1.6" stroke-linecap="round" stroke-linejoin="round"/>
</svg>
