<svg width="25" height="25" viewBox="0 0 25 25" fill="none" xmlns="http://www.w3.org/2000/svg">
<path d="M21.5 10.8635H20.7V16.6548H21.5H22.3V10.8635H21.5ZM19.5001 18.6548V17.8548H18V18.6548V19.4548H19.5001V18.6548ZM18 18.6548H18.8V17.8635H18H17.2V18.6548H18ZM7 17.8635H6.2V18.6548H7H7.8V17.8635H7ZM7 18.6548V17.8548H5.5V18.6548V19.4548H7V18.6548ZM3.5 16.6548H4.3V10.8635H3.5H2.7V16.6548H3.5ZM5.5 18.6548V17.8548C4.83726 17.8548 4.3 17.3175 4.3 16.6548H3.5H2.7C2.7 18.2012 3.9536 19.4548 5.5 19.4548V18.6548ZM18 17.8635H18.8C18.8 16.3171 17.5464 15.0635 16 15.0635V15.8635V16.6635C16.6627 16.6635 17.2 17.2008 17.2 17.8635H18ZM21.5 16.6548H20.7C20.7 17.3175 20.1628 17.8548 19.5001 17.8548V18.6548V19.4548C21.0465 19.4548 22.3 18.2011 22.3 16.6548H21.5ZM18.5 7.86349V8.6635C19.715 8.6635 20.7 9.64847 20.7 10.8635H21.5H22.3C22.3 8.76481 20.5987 7.06349 18.5 7.06349V7.86349ZM7 17.8635H7.8C7.8 17.2008 8.33726 16.6635 9 16.6635V15.8635V15.0635C7.4536 15.0635 6.2 16.3171 6.2 17.8635H7ZM6.5 7.86349V7.06349C4.40132 7.06349 2.7 8.76481 2.7 10.8635H3.5H4.3C4.3 9.64847 5.28497 8.6635 6.5 8.6635V7.86349ZM7 18.6548H6.2V19.3635H7H7.8V18.6548H7ZM9 21.3635V22.1635H16V21.3635V20.5635H9V21.3635ZM18 19.3635H18.8V18.6548H18H17.2V19.3635H18ZM16 21.3635V22.1635C17.5464 22.1635 18.8 20.9099 18.8 19.3635H18H17.2C17.2 20.0262 16.6627 20.5635 16 20.5635V21.3635ZM7 19.3635H6.2C6.2 20.9099 7.4536 22.1635 9 22.1635V21.3635V20.5635C8.33726 20.5635 7.8 20.0262 7.8 19.3635H7ZM8.74249 3.63647V4.43647H16.1815V3.63647V2.83647H8.74249V3.63647ZM18.1815 5.63647H17.3815V7.86349H18.1815H18.9815V5.63647H18.1815ZM18.1815 7.86349V7.06349H6.74249V7.86349V8.6635H18.1815V7.86349ZM6.74249 7.86349H7.54249V5.63647H6.74249H5.94249V7.86349H6.74249ZM16.1815 3.63647V4.43647C16.8442 4.43647 17.3815 4.97373 17.3815 5.63647H18.1815H18.9815C18.9815 4.09008 17.7279 2.83647 16.1815 2.83647V3.63647ZM8.74249 3.63647V2.83647C7.1961 2.83647 5.94249 4.09008 5.94249 5.63647H6.74249H7.54249C7.54249 4.97373 8.07975 4.43647 8.74249 4.43647V3.63647ZM16 15.8635V15.0635H9V15.8635V16.6635H16V15.8635ZM6.5 7.86349V8.6635H6.74249V7.86349V7.06349H6.5V7.86349ZM18.1815 7.86349V8.6635H18.5V7.86349V7.06349H18.1815V7.86349Z" fill="#222222"/>
</svg>
