<svg width="25" height="25" viewBox="0 0 25 25" fill="none" xmlns="http://www.w3.org/2000/svg">
<path d="M9.49995 12.5001C9.49995 10.8432 10.8431 9.50005 12.5 9.50005C14.1568 9.50005 15.5 10.8432 15.5 12.5001C15.5 14.1569 14.1568 15.5001 12.5 15.5001C10.8431 15.5001 9.49995 14.1569 9.49995 12.5001Z" stroke="#222222" stroke-width="1.6" stroke-linecap="round" stroke-linejoin="round"/>
<path d="M16.3221 3.2581C16.0577 3.14834 15.9254 3.09347 15.7526 3.0847C15.6137 3.07766 15.4345 3.10987 15.3067 3.16483C15.1478 3.23323 15.0282 3.34442 14.789 3.5668C14.6612 3.6856 14.5271 3.81061 14.3862 3.94193C13.8966 4.3983 13.6518 4.62649 13.3926 4.75574C12.8305 5.03612 12.1694 5.03612 11.6072 4.75574C11.3481 4.6265 11.1033 4.39831 10.6137 3.94193C10.4731 3.81091 10.3392 3.68617 10.2117 3.56761C9.97282 3.34546 9.85337 3.23438 9.69475 3.16601C9.5672 3.11103 9.38854 3.07872 9.24981 3.08553C9.0773 3.09401 8.94495 3.1486 8.68025 3.25777C7.87351 3.59051 7.10756 4.02947 6.40552 4.56846C6.17885 4.74249 6.06551 4.82951 5.97168 4.97475C5.89631 5.09141 5.83469 5.26272 5.81847 5.40067C5.79829 5.5724 5.83474 5.73135 5.90765 6.04924C5.94677 6.21983 5.98811 6.39907 6.03154 6.58741C6.18195 7.23965 6.25715 7.56577 6.23953 7.85479C6.20129 8.48178 5.8707 9.05438 5.34682 9.401C5.10534 9.56077 4.78531 9.6587 4.14524 9.85456C3.96043 9.91112 3.78453 9.96494 3.61724 10.0164C3.30548 10.1122 3.1496 10.1601 3.01096 10.2634C2.89961 10.3464 2.78206 10.4854 2.71871 10.6091C2.63984 10.7629 2.62116 10.9046 2.58378 11.1879C2.46802 12.0654 2.47084 12.9482 2.58606 13.8132C2.62386 14.0971 2.64276 14.239 2.72167 14.3926C2.78513 14.5162 2.90245 14.6547 3.01383 14.7377C3.15235 14.8409 3.30828 14.8888 3.62012 14.9846C3.78655 15.0358 3.96149 15.0893 4.14524 15.1455C4.78531 15.3414 5.10534 15.4393 5.34682 15.5991C5.8707 15.9457 6.20129 16.5183 6.23953 17.1453C6.25715 17.4343 6.18195 17.7604 6.03154 18.4127C5.98826 18.6004 5.94706 18.779 5.90806 18.9491C5.83505 19.2674 5.79855 19.4265 5.8188 19.5984C5.83508 19.7365 5.8968 19.9079 5.97234 20.0246C6.06636 20.1699 6.17999 20.257 6.40726 20.4311C6.75071 20.6943 7.11516 20.9381 7.49996 21.1603C7.88475 21.3825 8.27816 21.5761 8.67776 21.742C8.94221 21.8518 9.07443 21.9066 9.24727 21.9154C9.38615 21.9224 9.56541 21.8902 9.69315 21.8353C9.85212 21.7669 9.9717 21.6557 10.2109 21.4333C10.3386 21.3145 10.4728 21.1895 10.6136 21.0582C11.1033 20.6018 11.3481 20.3736 11.6072 20.2444C12.1693 19.964 12.8305 19.964 13.3926 20.2444C13.6518 20.3736 13.8966 20.6018 14.3862 21.0582C14.5268 21.1892 14.6607 21.3139 14.7882 21.4325C15.0271 21.6547 15.1465 21.7657 15.3052 21.8341C15.4327 21.8891 15.6114 21.9214 15.7501 21.9146C15.9226 21.9061 16.055 21.8515 16.3197 21.7423C17.1264 21.4096 17.8923 20.9707 18.5944 20.4317C18.821 20.2576 18.9344 20.1706 19.0282 20.0254C19.1036 19.9087 19.1652 19.7374 19.1814 19.5995C19.2016 19.4277 19.1651 19.2688 19.0922 18.9509C19.0531 18.7803 19.0118 18.601 18.9683 18.4127C18.8179 17.7604 18.7427 17.4343 18.7604 17.1453C18.7986 16.5183 19.1292 15.9457 19.6531 15.5991C19.8945 15.4393 20.2146 15.3414 20.8546 15.1455C21.0395 15.089 21.2154 15.0351 21.3827 14.9837C21.6944 14.8879 21.8503 14.84 21.989 14.7367C22.1003 14.6537 22.2179 14.5146 22.2812 14.391C22.3601 14.2371 22.3788 14.0955 22.4161 13.8122C22.5319 12.9347 22.5291 12.0519 22.4139 11.1869C22.3761 10.903 22.3572 10.7611 22.2782 10.6075C22.2148 10.4839 22.0975 10.3454 21.9861 10.2624C21.8476 10.1592 21.6916 10.1113 21.3798 10.0155C21.2134 9.96433 21.0384 9.9108 20.8546 9.85456C20.2146 9.6587 19.8945 9.56077 19.6531 9.401C19.1292 9.05438 18.7986 8.48178 18.7604 7.85479C18.7427 7.56577 18.8179 7.23965 18.9683 6.58741C19.0116 6.39973 19.0528 6.22108 19.0918 6.05102C19.1648 5.73271 19.2013 5.57356 19.1811 5.40168C19.1648 5.26358 19.1031 5.09223 19.0275 4.97548C18.9335 4.83017 18.8199 4.7431 18.5926 4.56897C18.2492 4.30583 17.8847 4.06196 17.5 3.8398C17.1152 3.61764 16.7217 3.42395 16.3221 3.2581Z" stroke="#222222" stroke-width="1.6" stroke-linecap="round" stroke-linejoin="round"/>
</svg>
